<?xml version="1.0" encoding="utf-8"?>
<!-- Generator: Adobe Illustrator 19.2.1, SVG Export Plug-In . SVG Version: 6.00 Build 0)  -->
<svg version="1.1" id="Layer_1" xmlns="http://www.w3.org/2000/svg" xmlns:xlink="http://www.w3.org/1999/xlink" x="0px" y="0px"
	 viewBox="0 0 12.1 23.7" style="enable-background:new 0 0 12.1 23.7;" xml:space="preserve">
<style type="text/css">
	.st0{clip-path:url(#SVGID_2_);}
</style>
<g>
	<g>
		<defs>
			<rect id="SVGID_1_" width="12.1" height="23.8"/>
		</defs>
		<clipPath id="SVGID_2_">
			<use xlink:href="#SVGID_1_"  style="overflow:visible;"/>
		</clipPath>
		<path class="st0" d="M11.1,20.5H1V3.2h10L11.1,20.5L11.1,20.5z M6.1,23c-0.5,0-0.9-0.4-0.9-0.9s0.4-0.9,0.9-0.9S7,21.6,7,22.1
			C6.9,22.6,6.5,23,6.1,23 M4.7,1.3h2.7c0.2,0,0.3,0.1,0.3,0.3S7.6,1.9,7.4,1.9H4.7c-0.2,0-0.3-0.1-0.3-0.3C4.4,1.4,4.5,1.3,4.7,1.3
			 M10.8,0H1.4C0.6,0,0,0.6,0,1.4v21c0,0.7,0.6,1.4,1.4,1.4h9.4c0.7,0,1.4-0.6,1.4-1.4v-21C12.1,0.6,11.5,0,10.8,0"/>
	</g>
</g>
</svg>
