<?xml version="1.0" encoding="utf-8"?>
<!-- Generator: Adobe Illustrator 19.2.1, SVG Export Plug-In . SVG Version: 6.00 Build 0)  -->
<svg version="1.1" id="Layer_1" xmlns="http://www.w3.org/2000/svg" xmlns:xlink="http://www.w3.org/1999/xlink" x="0px" y="0px"
	 viewBox="0 0 17.7 12.3" style="enable-background:new 0 0 17.7 12.3;" xml:space="preserve">
<style type="text/css">
	.st0{clip-path:url(#SVGID_2_);}
</style>
<g>
	<g>
		<defs>
			<rect id="SVGID_1_" width="17.7" height="12.3"/>
		</defs>
		<clipPath id="SVGID_2_">
			<use xlink:href="#SVGID_1_"  style="overflow:visible;"/>
		</clipPath>
		<path class="st0" d="M4.7,4.1C2.5,1.9,0.6,0,0.6,0s3.7,0,8.2,0S17,0,17,0L8.8,8.2C8.9,8.3,7,6.4,4.7,4.1 M0,6.3V0.8l2.7,2.7
			C4.2,5,5.4,6.2,5.4,6.2S4.9,6.7,4.3,7.3S3,8.7,2.7,9c-1.1,1.2-1.7,1.8-2.2,2.2L0,11.7V6.3z M17.5,11.6c-0.1-0.1-0.5-0.5-0.8-0.8
			c-3.5-3.6-4.4-4.5-4.4-4.5s1.2-1.2,2.7-2.7l2.7-2.7v5.5c0,3,0,5.5,0,5.5C17.7,11.8,17.6,11.7,17.5,11.6 M1.1,11.9
			C1.3,11.7,2,11,2.6,10.4c2.1-2.1,2.2-2.3,2.8-2.9L6,6.9l1.4,1.4C8.2,9,8.9,9.6,8.9,9.6S9.5,9,10.3,8.2l1.4-1.4l0.2,0.3
			C12,7.2,12.4,7.6,12.8,8c0.8,0.8,1.6,1.7,2.3,2.4c0.3,0.3,0.8,0.8,1.2,1.2c0.3,0.3,0.6,0.6,0.6,0.6s-3.6,0-8,0h-8L1.1,11.9z"/>
	</g>
</g>
</svg>
