<?xml version="1.0" encoding="utf-8"?>
<!-- Generator: Adobe Illustrator 19.2.1, SVG Export Plug-In . SVG Version: 6.00 Build 0)  -->
<svg viewBox="0 0 216 216" xml:space="preserve">
<path fill="#0076B3" d="M200,0H15.9C7.1,0,0,7,0,15.6v184.9C0,209,7.1,216,15.9,216H200c8.8,0,16-7,16-15.6V15.6
	C216,7,208.8,0,200,0z M64.1,184.1H32V81h32.1V184.1z M48,66.9c-10.3,0-18.6-8.3-18.6-18.6c0-10.2,8.3-18.6,18.6-18.6
	c10.2,0,18.6,8.3,18.6,18.6C66.6,58.6,58.3,66.9,48,66.9z M184,184.1h-32v-50.1c0-12-0.2-27.3-16.7-27.3c-16.7,0-19.2,13-19.2,26.5
	v51h-32V81h30.7v14.1h0.4c4.3-8.1,14.7-16.6,30.3-16.6c32.4,0,38.4,21.3,38.4,49.1V184.1z"/>
</svg>
