<?xml version="1.0" encoding="utf-8"?>
<!-- Generator: Adobe Illustrator 19.2.1, SVG Export Plug-In . SVG Version: 6.00 Build 0)  -->
<svg version="1.1" id="logo" xmlns="http://www.w3.org/2000/svg" xmlns:xlink="http://www.w3.org/1999/xlink" x="0px" y="0px"
	 viewBox="0 0 586 586" style="enable-background:new 0 0 586 586;" xml:space="preserve">
<style type="text/css">
	.st0{fill:#01EDEA;}
</style>
<path class="st0" d="M447.9,236.3c-2.5,0-3.7,3-3.7,6.2v66.7c0,3.5,1.2,6,3.7,6s3.7-2.5,3.7-6v-66.7
	C451.5,239.5,450.4,236.3,447.9,236.3z"/>
<path class="st0" d="M420.3,28.9c-2.1-1-4.3-2-6.4-3c-26-11.7-53.9-19.8-83.3-23.5C318.4,0.8,305.9,0,293.3,0
	c-12.6,0-25.1,0.8-37.3,2.4c-29.3,3.7-57.3,11.8-83.3,23.5c-2.2,1-4.3,2-6.4,3c-29.9,14.4-57,33.7-80.2,56.9c-1.7,1.7-3.3,3.3-4.9,5
	C31.1,143.4,0.3,214.6,0.3,293s30.8,149.6,80.9,202.2c1.6,1.7,3.3,3.4,4.9,5c23.2,23.2,50.3,42.5,80.2,56.9c2.1,1,4.3,2,6.4,3
	c26,11.7,53.9,19.8,83.3,23.5c12.2,1.6,24.7,2.4,37.3,2.4c12.6,0,25.1-0.8,37.3-2.4c29.3-3.7,57.3-11.8,83.3-23.5c2.2-1,4.3-2,6.4-3
	c98.2-47.3,166-147.8,166-264.1S518.5,76.2,420.3,28.9z M179.7,359.4c0,1.4-1.1,2.5-2.5,2.5H94.8c-1.4,0-2.5-1.4-2.5-3V192.6
	c0-1.4,1.4-3.2,3-3.2h38.9c1.4,0,2.3,1.1,2.3,2.5v120.7c0,0.9,0.7,1.6,1.4,1.6h39.3c1.6,0,2.5,1.1,2.5,2.3V359.4z M282.3,309.9
	c0,35.4-22.5,52.7-47.8,52.7c-25.3,0-47.8-17-47.8-52.7v-68.1c0-35.6,22.3-52.9,47.8-52.9c25.5,0,47.8,17.2,47.8,52.9V309.9z
	 M395.7,304.8c0,0.9-0.2,1.8-0.9,1.8h-3.9c-1.4,0-1.6,1.2-1.6,2.8c0,22.3-13.3,53.1-48.8,53.1c-33.8,0-51.7-23.9-51.7-75v-26.9
	c0-42.8,14-71.8,52.7-71.8c9,0,47.8,0,47.8,64.4c0,1.6-0.7,3-2.3,3l-41.6,1.8c-1.6,0-3.2-1.6-3.2-3.9v-13.1c0-2.1-1.8-2.5-3.7-2.5
	c-2.1,0-3.7,1.6-3.7,5.3v63.2c0,7.1,2.3,10.1,5.3,10.1c2.5,0,5.1-1.4,5.1-6.9v-3.5c0-0.7-0.2-1.4-0.9-1.4H343
	c-0.5,0-0.9-0.5-0.9-1.4v-25.3c0-2.5,2.5-3.2,3.9-3.2h46.7c1.6,0,3,1.4,3,2.8V304.8z M495.7,309.9c0,35.4-22.5,52.7-47.8,52.7
	s-47.8-17-47.8-52.7v-68.1c0-35.6,22.3-52.9,47.8-52.9s47.8,17.2,47.8,52.9V309.9z"/>
<path class="st0" d="M234.4,236.3c-2.5,0-3.7,3-3.7,6.2v66.7c0,3.5,1.2,6,3.7,6c2.5,0,3.7-2.5,3.7-6v-66.7
	C238.1,239.5,237,236.3,234.4,236.3z"/>
</svg>
